Coordinates
version=1
nRows=10
nColumns=40
inDegrees=yes

Units are S.I. units (second, meters, Newtons, ...)
Angles are in degrees.

endheader
time	pelvis_tilt	pelvis_list	pelvis_rotation	pelvis_tx	pelvis_ty	pelvis_tz	hip_flexion_r	hip_adduction_r	hip_rotation_r	knee_angle_r	knee_angle_r_beta	ankle_angle_r	subtalar_angle_r	mtp_angle_r	hip_flexion_l	hip_adduction_l	hip_rotation_l	knee_angle_l	knee_angle_l_beta	ankle_angle_l	subtalar_angle_l	mtp_angle_l	lumbar_extension	lumbar_bending	lumbar_rotation	arm_flex_r	arm_add_r	arm_rot_r	elbow_flex_r	pro_sup_r	wrist_flex_r	wrist_dev_r	arm_flex_l	arm_add_l	arm_rot_l	elbow_flex_l	pro_sup_l	wrist_flex_l	wrist_dev_l
     29.03000000	     -8.70249799	     -7.46132407	      2.63161585	      1.04097601	      0.91523854	      0.49702207	      2.76490280	      4.85430890	    -16.41127479	      6.85981486	      6.85981486	     14.68864259	      8.64008927	     -4.27010292	     39.44259212	    -10.72363008	      0.19769448	     19.68034101	     19.68034101	      7.81249925	     -7.49700688	     11.46878042	    -12.91946044	      6.28813351	      3.54814140	     41.28367757	    -13.79722374	     10.99016171	    102.93887652	     43.90076776	      0.00000000	      0.00000000	    -11.11232654	     -7.87716790	    -13.32077198	     35.68720848	     46.93533892	      0.00000000	      0.00000000
     29.04157143	     -8.64717492	     -7.52490076	      2.45425418	      1.04270330	      0.91352862	      0.49517205	      2.02893267	      4.82055398	    -16.14890707	      6.93117999	      6.93117999	     15.32477985	      8.65131431	     -4.27135288	     38.72983679	    -10.80854314	     -0.51482396	     19.63482902	     19.63482902	      7.05224986	     -7.83664590	     11.31099848	    -12.57962461	      6.35550433	      3.43366668	     41.55597598	    -12.83467220	     11.23881405	    103.76794135	     43.88128664	      0.00000000	      0.00000000	    -11.35794519	     -8.03981739	    -13.31869848	     35.53419687	     46.92665624	      0.00000000	      0.00000000
     29.05314286	     -8.54087126	     -7.58939536	      2.27514285	      1.04459133	      0.91179795	      0.49314501	      1.33302681	      4.74139620	    -15.78262249	      7.25237454	      7.25237454	     16.43828339	      8.61675809	     -2.93277779	     37.83668808	    -10.85263250	     -1.01557186	     19.40176481	     19.40176481	      4.60962243	     -8.84042550	      7.47286511	    -12.30019895	      6.43227730	      3.42439045	     41.59977671	    -12.14510511	     11.58883669	    104.89150605	     43.93343139	      0.00000000	      0.00000000	    -11.66932563	     -8.18106721	    -13.25735720	     35.92423389	     46.88063075	      0.00000000	      0.00000000
     29.06471429	     -8.46156252	     -7.52270649	      2.13668746	      1.04635530	      0.91011060	      0.49091338	      0.77924799	      4.47455741	    -15.44843704	      7.73868136	      7.73868136	     17.18584578	      8.35870880	     -2.96161044	     37.24153247	    -10.77019843	     -1.44536788	     19.82276299	     19.82276299	      3.67708529	     -9.30640772	      7.13413285	    -12.01204967	      6.37173828	      3.23707928	     41.60264275	    -11.26619662	     11.90179770	    105.78528368	     43.91194034	      0.00000000	      0.00000000	    -11.82166767	     -8.33375606	    -13.21480022	     35.81845620	     46.86788704	      0.00000000	      0.00000000
     29.07628571	     -8.32930390	     -7.40271357	      2.00385998	      1.04807030	      0.90872119	      0.48849085	      0.15062145	      4.13380137	    -15.14266822	      8.16312728	      8.16312728	     17.72633736	      8.17367202	     -3.00900238	     36.72711772	    -10.64930069	     -1.86396060	     20.52308835	     20.52308835	      2.87809642	     -9.74941111	      7.00053991	    -11.79460776	      6.24198809	      3.18960775	     41.33313687	    -10.78849405	     12.15349165	    106.15790776	     43.89643398	      0.00000000	      0.00000000	    -11.69233502	     -8.48546785	    -13.20342407	     35.85509557	     46.86709222	      0.00000000	      0.00000000
     29.08785714	     -8.12804866	     -7.21042498	      1.95991199	      1.04966675	      0.90764491	      0.48579108	     -0.40290175	      3.66801511	    -14.84344897	      8.85770416	      8.85770416	     18.26569455	      7.79408658	     -3.04748056	     36.25776517	    -10.39849824	     -2.05291571	     21.40702687	     21.40702687	      2.22187007	    -10.23550166	      6.69860028	    -11.71071873	      6.01279759	      2.96008944	     40.94531135	    -10.28966272	     12.43276290	    106.65266107	     43.87509774	      0.00000000	      0.00000000	    -11.51203279	     -8.62986298	    -13.17331261	     35.88056329	     46.86483887	      0.00000000	      0.00000000
     29.09942857	     -8.08119738	     -7.05913759	      1.90542839	      1.05096277	      0.90649242	      0.48285267	     -0.24788955	      3.12953540	    -14.15972608	     10.62526476	     10.62526476	     19.70119780	      6.58024673	     -1.04792657	     35.70731899	    -10.03939772	     -1.76089536	     21.62772622	     21.62772622	     -0.43589212	    -12.06900760	      1.75572139	    -11.58158182	      5.92477342	      3.02214030	     40.21617126	    -10.25333590	     12.51395958	    108.67818195	     43.90683218	      0.00000000	      0.00000000	    -11.20371939	     -8.86799470	    -12.35594504	     35.79691480	     46.74371748	      0.00000000	      0.00000000
     29.11100000	     -7.82395484	     -6.81913035	      1.93277221	      1.05219281	      0.90613874	      0.47968834	     -0.54625716	      2.51741165	    -13.89655762	     11.84849110	     11.84849110	     20.06301949	      5.99592392	     -1.28325967	     35.35556078	     -9.66764983	     -1.69330114	     22.75682520	     22.75682520	     -0.49170721	    -12.60288151	      1.57164958	    -11.65688352	      5.69658327	      2.71768243	     39.59182873	     -9.98774523	     12.79448797	    108.94785822	     43.89464054	      0.00000000	      0.00000000	    -10.87139544	     -9.00394780	    -12.29081541	     35.83282937	     46.73920944	      0.00000000	      0.00000000
     29.12257143	     -7.49836500	     -6.56737910	      2.14086027	      1.05339063	      0.90638730	      0.47602839	     -0.96246494	      1.89339788	    -13.82320291	     12.96522049	     12.96522049	     20.14227954	      5.40937189	     -1.44282746	     34.91146387	     -9.16600984	     -1.43291514	     23.78629922	     23.78629922	     -0.26179709	    -12.97569264	      1.31690128	    -11.84822649	      5.49809173	      2.28229239	     38.73986300	     -9.88698184	     13.04954607	    109.02492722	     43.88378807	      0.00000000	      0.00000000	    -10.31445507	     -9.01656880	    -12.22705813	     35.97384023	     46.73876200	      0.00000000	      0.00000000
     29.13414286	     -7.62765240	     -6.23898374	      2.07140160	      1.05363601	      0.90606588	      0.47251749	      0.21089099	      0.93483100	    -13.17309232	     16.06266267	     16.06266267	     20.40865509	      3.72700825	     -2.20666763	     35.01103028	     -8.60803457	     -1.11013280	     24.90567807	     24.90567807	      0.10937273	    -13.81157602	      1.41294199	    -11.71692242	      5.21888029	      2.22943937	     37.75991720	    -10.16414001	     13.39942151	    109.83744855	     43.85897948	      0.00000000	      0.00000000	     -9.82174016	     -9.16895806	    -12.03697100	     35.94011407	     46.71996257	      0.00000000	      0.00000000
